M48
; DRILL file {KiCad (6.0.5)} date Sun Jul 17 18:14:09 2022
; FORMAT={-:-/ absolute / inch / decimal}
; #@! TF.CreationDate,2022-07-17T18:14:09+01:00
; #@! TF.GenerationSoftware,Kicad,Pcbnew,(6.0.5)
; #@! TF.FileFunction,Plated,1,2,PTH
FMAT,2
INCH
; #@! TA.AperFunction,Plated,PTH,ComponentDrill
T1C0.0551
%
G90
G05
T1
X5.9Y-1.95
X5.9Y-3.05
X6.0Y-1.95
X6.0Y-3.05
X6.0Y-3.2
X6.1Y-1.95
X6.1Y-3.05
X6.1Y-3.2
X6.2Y-1.95
X6.2Y-3.05
X6.2Y-3.2
X6.3Y-1.95
X6.3Y-3.05
X6.3Y-3.2
X6.4Y-1.95
X6.4Y-3.05
X6.4Y-3.2
X6.5Y-1.95
X6.5Y-3.05
X6.6Y-1.95
X6.6Y-3.05
X6.7Y-1.95
X6.7Y-3.05
X6.8Y-1.95
X6.8Y-3.05
X6.8Y-3.2
X6.9Y-1.95
X6.9Y-3.05
X6.9Y-3.2
X7.0Y-1.95
X7.0Y-3.05
X7.1Y-1.95
X7.1Y-3.05
X7.1Y-3.2
X7.2Y-1.95
X7.2Y-3.05
X7.2Y-3.2
X7.3Y-1.95
X7.3Y-3.05
X7.3Y-3.2
T0
M30
