%TF.GenerationSoftware,KiCad,Pcbnew,(6.0.5)*%
%TF.CreationDate,2022-07-21T22:12:38+01:00*%
%TF.ProjectId,wheelchairPCB,77686565-6c63-4686-9169-725043422e6b,rev?*%
%TF.SameCoordinates,Original*%
%TF.FileFunction,Copper,L1,Top*%
%TF.FilePolarity,Positive*%
%FSLAX46Y46*%
G04 Gerber Fmt 4.6, Leading zero omitted, Abs format (unit mm)*
G04 Created by KiCad (PCBNEW (6.0.5)) date 2022-07-21 22:12:38*
%MOMM*%
%LPD*%
G01*
G04 APERTURE LIST*
%TA.AperFunction,ComponentPad*%
%ADD10C,1.778000*%
%TD*%
%TA.AperFunction,ComponentPad*%
%ADD11R,2.000000X2.000000*%
%TD*%
G04 APERTURE END LIST*
D10*
%TO.P,U1,1,A0*%
%TO.N,unconnected-(U1-Pad1)*%
X187960000Y-49530000D03*
%TO.P,U1,2,GND*%
%TO.N,unconnected-(U1-Pad2)*%
X185420000Y-49530000D03*
%TO.P,U1,22,D6*%
%TO.N,unconnected-(U1-Pad22)*%
X167640000Y-77470000D03*
%TO.P,U1,3,VU*%
%TO.N,unconnected-(U1-Pad3)*%
X182880000Y-49530000D03*
%TO.P,U1,4,S3*%
%TO.N,unconnected-(U1-Pad4)*%
X180340000Y-49530000D03*
%TO.P,U1,5,S2*%
%TO.N,unconnected-(U1-Pad5)*%
X177800000Y-49530000D03*
%TO.P,U1,6,S1*%
%TO.N,unconnected-(U1-Pad6)*%
X175260000Y-49530000D03*
%TO.P,U1,7,SC*%
%TO.N,unconnected-(U1-Pad7)*%
X172720000Y-49530000D03*
%TO.P,U1,8,S0*%
%TO.N,unconnected-(U1-Pad8)*%
X170180000Y-49530000D03*
%TO.P,U1,9,SK*%
%TO.N,unconnected-(U1-Pad9)*%
X167640000Y-49530000D03*
%TO.P,U1,10,GND*%
%TO.N,unconnected-(U1-Pad10)*%
X165100000Y-49530000D03*
%TO.P,U1,11,3V*%
%TO.N,unconnected-(U1-Pad11)*%
X162560000Y-49530000D03*
%TO.P,U1,12,EN*%
%TO.N,unconnected-(U1-Pad12)*%
X160020000Y-49530000D03*
%TO.P,U1,13,RST*%
%TO.N,unconnected-(U1-Pad13)*%
X157480000Y-49530000D03*
%TO.P,U1,14,GND*%
%TO.N,unconnected-(U1-Pad14)*%
X154940000Y-49530000D03*
%TO.P,U1,15,VIN*%
%TO.N,Net-(J1-Pad2)*%
X152400000Y-49530000D03*
%TO.P,U1,16,3v*%
%TO.N,unconnected-(U1-Pad16)*%
X152400000Y-77470000D03*
%TO.P,U1,17,GND*%
%TO.N,unconnected-(U1-Pad17)*%
X154940000Y-77470000D03*
%TO.P,U1,18,TX*%
%TO.N,unconnected-(U1-Pad18)*%
X157480000Y-77470000D03*
%TO.P,U1,19,RX*%
%TO.N,unconnected-(U1-Pad19)*%
X160020000Y-77470000D03*
%TO.P,U1,20,D8*%
%TO.N,unconnected-(U1-Pad20)*%
X162560000Y-77470000D03*
%TO.P,U1,21,D7*%
%TO.N,unconnected-(U1-Pad21)*%
X165100000Y-77470000D03*
%TO.P,U1,23,D5*%
%TO.N,unconnected-(U1-Pad23)*%
X170180000Y-77470000D03*
%TO.P,U1,24,GND*%
%TO.N,Net-(J1-Pad1)*%
X172720000Y-77470000D03*
%TO.P,U1,25,3V*%
%TO.N,unconnected-(U1-Pad25)*%
X175260000Y-77470000D03*
%TO.P,U1,26,D4*%
%TO.N,unconnected-(U1-Pad26)*%
X177800000Y-77470000D03*
%TO.P,U1,27,D3*%
%TO.N,unconnected-(U1-Pad27)*%
X180340000Y-77470000D03*
%TO.P,U1,28,D2*%
%TO.N,Net-(J3-Pad4)*%
X182880000Y-77470000D03*
%TO.P,U1,29,D1*%
%TO.N,Net-(J3-Pad5)*%
X185420000Y-77470000D03*
%TO.P,U1,30,D0*%
%TO.N,unconnected-(U1-Pad30)*%
X187960000Y-77470000D03*
%TD*%
D11*
%TO.P,J1,1,Pin_1*%
%TO.N,Net-(J1-Pad1)*%
X172720000Y-81280000D03*
%TO.P,J1,2,Pin_2*%
%TO.N,Net-(J1-Pad2)*%
X170180000Y-81280000D03*
%TD*%
%TO.P,J2,1,Pin_1*%
%TO.N,Net-(J1-Pad2)*%
X160020000Y-81280000D03*
%TO.P,J2,2,Pin_2*%
X157480000Y-81280000D03*
%TO.P,J2,3,Pin_3*%
X154940000Y-81280000D03*
%TD*%
%TO.P,J3,5,Pin_5*%
%TO.N,Net-(J3-Pad5)*%
X185420000Y-81280000D03*
%TO.P,J3,4,Pin_4*%
%TO.N,Net-(J3-Pad4)*%
X182880000Y-81280000D03*
%TO.P,J3,3,Pin_3*%
%TO.N,Net-(J1-Pad1)*%
X180340000Y-81280000D03*
%TO.P,J3,2,Pin_2*%
X177800000Y-81280000D03*
%TO.P,J3,1,Pin_1*%
X175260000Y-81280000D03*
%TD*%
M02*
