%TF.GenerationSoftware,KiCad,Pcbnew,(6.0.5)*%
%TF.CreationDate,2022-07-13T22:10:15+01:00*%
%TF.ProjectId,WheelchairPCBKiCad,57686565-6c63-4686-9169-725043424b69,rev?*%
%TF.SameCoordinates,Original*%
%TF.FileFunction,Legend,Top*%
%TF.FilePolarity,Positive*%
%FSLAX46Y46*%
G04 Gerber Fmt 4.6, Leading zero omitted, Abs format (unit mm)*
G04 Created by KiCad (PCBNEW (6.0.5)) date 2022-07-13 22:10:15*
%MOMM*%
%LPD*%
G01*
G04 APERTURE LIST*
%ADD10C,0.150000*%
%ADD11C,0.120000*%
G04 APERTURE END LIST*
D10*
X118422500Y-106770000D02*
X118422500Y-106055714D01*
X118851071Y-106912857D02*
X117351071Y-106412857D01*
X118851071Y-105912857D01*
X118851071Y-105412857D02*
X117851071Y-105412857D01*
X118136785Y-105412857D02*
X117993928Y-105341428D01*
X117922500Y-105270000D01*
X117851071Y-105127142D01*
X117851071Y-104984285D01*
X118851071Y-103841428D02*
X117351071Y-103841428D01*
X118779642Y-103841428D02*
X118851071Y-103984285D01*
X118851071Y-104270000D01*
X118779642Y-104412857D01*
X118708214Y-104484285D01*
X118565357Y-104555714D01*
X118136785Y-104555714D01*
X117993928Y-104484285D01*
X117922500Y-104412857D01*
X117851071Y-104270000D01*
X117851071Y-103984285D01*
X117922500Y-103841428D01*
X117851071Y-102484285D02*
X118851071Y-102484285D01*
X117851071Y-103127142D02*
X118636785Y-103127142D01*
X118779642Y-103055714D01*
X118851071Y-102912857D01*
X118851071Y-102698571D01*
X118779642Y-102555714D01*
X118708214Y-102484285D01*
X118851071Y-101770000D02*
X117851071Y-101770000D01*
X117351071Y-101770000D02*
X117422500Y-101841428D01*
X117493928Y-101770000D01*
X117422500Y-101698571D01*
X117351071Y-101770000D01*
X117493928Y-101770000D01*
X117851071Y-101055714D02*
X118851071Y-101055714D01*
X117993928Y-101055714D02*
X117922500Y-100984285D01*
X117851071Y-100841428D01*
X117851071Y-100627142D01*
X117922500Y-100484285D01*
X118065357Y-100412857D01*
X118851071Y-100412857D01*
X118851071Y-99484285D02*
X118779642Y-99627142D01*
X118708214Y-99698571D01*
X118565357Y-99770000D01*
X118136785Y-99770000D01*
X117993928Y-99698571D01*
X117922500Y-99627142D01*
X117851071Y-99484285D01*
X117851071Y-99270000D01*
X117922500Y-99127142D01*
X117993928Y-99055714D01*
X118136785Y-98984285D01*
X118565357Y-98984285D01*
X118708214Y-99055714D01*
X118779642Y-99127142D01*
X118851071Y-99270000D01*
X118851071Y-99484285D01*
X118851071Y-97198571D02*
X117351071Y-97198571D01*
X117351071Y-96627142D01*
X117422500Y-96484285D01*
X117493928Y-96412857D01*
X117636785Y-96341428D01*
X117851071Y-96341428D01*
X117993928Y-96412857D01*
X118065357Y-96484285D01*
X118136785Y-96627142D01*
X118136785Y-97198571D01*
X117351071Y-95912857D02*
X117422500Y-95841428D01*
X117493928Y-95912857D01*
X117422500Y-95984285D01*
X117351071Y-95912857D01*
X117493928Y-95912857D01*
X117351071Y-95341428D02*
X117422500Y-95270000D01*
X117493928Y-95341428D01*
X117422500Y-95412857D01*
X117351071Y-95341428D01*
X117493928Y-95341428D01*
X118851071Y-95627142D02*
X117851071Y-95627142D01*
X118851071Y-94984285D02*
X117851071Y-94198571D01*
X117851071Y-94984285D02*
X118851071Y-94198571D01*
X118779642Y-93055714D02*
X118851071Y-93198571D01*
X118851071Y-93484285D01*
X118779642Y-93627142D01*
X118636785Y-93698571D01*
X118065357Y-93698571D01*
X117922500Y-93627142D01*
X117851071Y-93484285D01*
X117851071Y-93198571D01*
X117922500Y-93055714D01*
X118065357Y-92984285D01*
X118208214Y-92984285D01*
X118351071Y-93698571D01*
X118851071Y-92127142D02*
X118779642Y-92270000D01*
X118636785Y-92341428D01*
X117351071Y-92341428D01*
X118779642Y-91627142D02*
X118851071Y-91484285D01*
X118851071Y-91198571D01*
X118779642Y-91055714D01*
X118636785Y-90984285D01*
X118565357Y-90984285D01*
X118422500Y-91055714D01*
X118351071Y-91198571D01*
X118351071Y-91412857D01*
X118279642Y-91555714D01*
X118136785Y-91627142D01*
X118065357Y-91627142D01*
X117922500Y-91555714D01*
X117851071Y-91412857D01*
X117851071Y-91198571D01*
X117922500Y-91055714D01*
X118851071Y-88412857D02*
X118851071Y-89270000D01*
X118851071Y-88841428D02*
X117351071Y-88841428D01*
X117565357Y-88984285D01*
X117708214Y-89127142D01*
X117779642Y-89270000D01*
X118708214Y-87770000D02*
X118779642Y-87698571D01*
X118851071Y-87770000D01*
X118779642Y-87841428D01*
X118708214Y-87770000D01*
X118851071Y-87770000D01*
X117351071Y-86770000D02*
X117351071Y-86627142D01*
X117422500Y-86484285D01*
X117493928Y-86412857D01*
X117636785Y-86341428D01*
X117922500Y-86270000D01*
X118279642Y-86270000D01*
X118565357Y-86341428D01*
X118708214Y-86412857D01*
X118779642Y-86484285D01*
X118851071Y-86627142D01*
X118851071Y-86770000D01*
X118779642Y-86912857D01*
X118708214Y-86984285D01*
X118565357Y-87055714D01*
X118279642Y-87127142D01*
X117922500Y-87127142D01*
X117636785Y-87055714D01*
X117493928Y-86984285D01*
X117422500Y-86912857D01*
X117351071Y-86770000D01*
X120266071Y-107341428D02*
X121266071Y-107055714D01*
X120551785Y-106770000D01*
X121266071Y-106484285D01*
X120266071Y-106198571D01*
X120266071Y-105770000D02*
X121266071Y-105484285D01*
X120551785Y-105198571D01*
X121266071Y-104912857D01*
X120266071Y-104627142D01*
X120266071Y-104198571D02*
X121266071Y-103912857D01*
X120551785Y-103627142D01*
X121266071Y-103341428D01*
X120266071Y-103055714D01*
X121123214Y-102484285D02*
X121194642Y-102412857D01*
X121266071Y-102484285D01*
X121194642Y-102555714D01*
X121123214Y-102484285D01*
X121266071Y-102484285D01*
X121266071Y-101555714D02*
X121194642Y-101698571D01*
X121051785Y-101770000D01*
X119766071Y-101770000D01*
X121266071Y-100770000D02*
X121194642Y-100912857D01*
X121123214Y-100984285D01*
X120980357Y-101055714D01*
X120551785Y-101055714D01*
X120408928Y-100984285D01*
X120337500Y-100912857D01*
X120266071Y-100770000D01*
X120266071Y-100555714D01*
X120337500Y-100412857D01*
X120408928Y-100341428D01*
X120551785Y-100270000D01*
X120980357Y-100270000D01*
X121123214Y-100341428D01*
X121194642Y-100412857D01*
X121266071Y-100555714D01*
X121266071Y-100770000D01*
X121266071Y-99412857D02*
X121194642Y-99555714D01*
X121051785Y-99627142D01*
X119766071Y-99627142D01*
X121266071Y-98627142D02*
X121194642Y-98770000D01*
X121051785Y-98841428D01*
X119766071Y-98841428D01*
X121194642Y-97484285D02*
X121266071Y-97627142D01*
X121266071Y-97912857D01*
X121194642Y-98055714D01*
X121051785Y-98127142D01*
X120480357Y-98127142D01*
X120337500Y-98055714D01*
X120266071Y-97912857D01*
X120266071Y-97627142D01*
X120337500Y-97484285D01*
X120480357Y-97412857D01*
X120623214Y-97412857D01*
X120766071Y-98127142D01*
X121266071Y-96770000D02*
X120266071Y-96770000D01*
X120551785Y-96770000D02*
X120408928Y-96698571D01*
X120337500Y-96627142D01*
X120266071Y-96484285D01*
X120266071Y-96341428D01*
X120266071Y-96055714D02*
X120266071Y-95484285D01*
X119766071Y-95841428D02*
X121051785Y-95841428D01*
X121194642Y-95770000D01*
X121266071Y-95627142D01*
X121266071Y-95484285D01*
X120266071Y-94341428D02*
X121266071Y-94341428D01*
X120266071Y-94984285D02*
X121051785Y-94984285D01*
X121194642Y-94912857D01*
X121266071Y-94770000D01*
X121266071Y-94555714D01*
X121194642Y-94412857D01*
X121123214Y-94341428D01*
X120266071Y-93841428D02*
X120266071Y-93270000D01*
X119766071Y-93627142D02*
X121051785Y-93627142D01*
X121194642Y-93555714D01*
X121266071Y-93412857D01*
X121266071Y-93270000D01*
X121266071Y-92555714D02*
X121194642Y-92698571D01*
X121123214Y-92770000D01*
X120980357Y-92841428D01*
X120551785Y-92841428D01*
X120408928Y-92770000D01*
X120337500Y-92698571D01*
X120266071Y-92555714D01*
X120266071Y-92341428D01*
X120337500Y-92198571D01*
X120408928Y-92127142D01*
X120551785Y-92055714D01*
X120980357Y-92055714D01*
X121123214Y-92127142D01*
X121194642Y-92198571D01*
X121266071Y-92341428D01*
X121266071Y-92555714D01*
X121266071Y-91412857D02*
X120266071Y-91412857D01*
X120551785Y-91412857D02*
X120408928Y-91341428D01*
X120337500Y-91270000D01*
X120266071Y-91127142D01*
X120266071Y-90984285D01*
X121123214Y-90484285D02*
X121194642Y-90412857D01*
X121266071Y-90484285D01*
X121194642Y-90555714D01*
X121123214Y-90484285D01*
X121266071Y-90484285D01*
X121194642Y-89127142D02*
X121266071Y-89270000D01*
X121266071Y-89555714D01*
X121194642Y-89698571D01*
X121123214Y-89770000D01*
X120980357Y-89841428D01*
X120551785Y-89841428D01*
X120408928Y-89770000D01*
X120337500Y-89698571D01*
X120266071Y-89555714D01*
X120266071Y-89270000D01*
X120337500Y-89127142D01*
X121266071Y-88270000D02*
X121194642Y-88412857D01*
X121123214Y-88484285D01*
X120980357Y-88555714D01*
X120551785Y-88555714D01*
X120408928Y-88484285D01*
X120337500Y-88412857D01*
X120266071Y-88270000D01*
X120266071Y-88055714D01*
X120337500Y-87912857D01*
X120408928Y-87841428D01*
X120551785Y-87770000D01*
X120980357Y-87770000D01*
X121123214Y-87841428D01*
X121194642Y-87912857D01*
X121266071Y-88055714D01*
X121266071Y-88270000D01*
X121266071Y-87127142D02*
X120266071Y-87127142D01*
X120408928Y-87127142D02*
X120337500Y-87055714D01*
X120266071Y-86912857D01*
X120266071Y-86698571D01*
X120337500Y-86555714D01*
X120480357Y-86484285D01*
X121266071Y-86484285D01*
X120480357Y-86484285D02*
X120337500Y-86412857D01*
X120266071Y-86270000D01*
X120266071Y-86055714D01*
X120337500Y-85912857D01*
X120480357Y-85841428D01*
X121266071Y-85841428D01*
X139771428Y-103615238D02*
X139771428Y-102853333D01*
X140152380Y-103234285D02*
X139390476Y-103234285D01*
X139152380Y-102472380D02*
X139152380Y-101853333D01*
X139533333Y-102186666D01*
X139533333Y-102043809D01*
X139580952Y-101948571D01*
X139628571Y-101900952D01*
X139723809Y-101853333D01*
X139961904Y-101853333D01*
X140057142Y-101900952D01*
X140104761Y-101948571D01*
X140152380Y-102043809D01*
X140152380Y-102329523D01*
X140104761Y-102424761D01*
X140057142Y-102472380D01*
X139152380Y-101567619D02*
X140152380Y-101234285D01*
X139152380Y-100900952D01*
X139152380Y-100662857D02*
X139152380Y-100043809D01*
X139533333Y-100377142D01*
X139533333Y-100234285D01*
X139580952Y-100139047D01*
X139628571Y-100091428D01*
X139723809Y-100043809D01*
X139961904Y-100043809D01*
X140057142Y-100091428D01*
X140104761Y-100139047D01*
X140152380Y-100234285D01*
X140152380Y-100520000D01*
X140104761Y-100615238D01*
X140057142Y-100662857D01*
X140104761Y-98900952D02*
X140152380Y-98758095D01*
X140152380Y-98520000D01*
X140104761Y-98424761D01*
X140057142Y-98377142D01*
X139961904Y-98329523D01*
X139866666Y-98329523D01*
X139771428Y-98377142D01*
X139723809Y-98424761D01*
X139676190Y-98520000D01*
X139628571Y-98710476D01*
X139580952Y-98805714D01*
X139533333Y-98853333D01*
X139438095Y-98900952D01*
X139342857Y-98900952D01*
X139247619Y-98853333D01*
X139200000Y-98805714D01*
X139152380Y-98710476D01*
X139152380Y-98472380D01*
X139200000Y-98329523D01*
X140152380Y-97900952D02*
X139152380Y-97900952D01*
X139152380Y-97662857D01*
X139200000Y-97520000D01*
X139295238Y-97424761D01*
X139390476Y-97377142D01*
X139580952Y-97329523D01*
X139723809Y-97329523D01*
X139914285Y-97377142D01*
X140009523Y-97424761D01*
X140104761Y-97520000D01*
X140152380Y-97662857D01*
X140152380Y-97900952D01*
X139866666Y-96948571D02*
X139866666Y-96472380D01*
X140152380Y-97043809D02*
X139152380Y-96710476D01*
X140152380Y-96377142D01*
X140104761Y-95329523D02*
X140152380Y-95186666D01*
X140152380Y-94948571D01*
X140104761Y-94853333D01*
X140057142Y-94805714D01*
X139961904Y-94758095D01*
X139866666Y-94758095D01*
X139771428Y-94805714D01*
X139723809Y-94853333D01*
X139676190Y-94948571D01*
X139628571Y-95139047D01*
X139580952Y-95234285D01*
X139533333Y-95281904D01*
X139438095Y-95329523D01*
X139342857Y-95329523D01*
X139247619Y-95281904D01*
X139200000Y-95234285D01*
X139152380Y-95139047D01*
X139152380Y-94900952D01*
X139200000Y-94758095D01*
X140057142Y-93758095D02*
X140104761Y-93805714D01*
X140152380Y-93948571D01*
X140152380Y-94043809D01*
X140104761Y-94186666D01*
X140009523Y-94281904D01*
X139914285Y-94329523D01*
X139723809Y-94377142D01*
X139580952Y-94377142D01*
X139390476Y-94329523D01*
X139295238Y-94281904D01*
X139200000Y-94186666D01*
X139152380Y-94043809D01*
X139152380Y-93948571D01*
X139200000Y-93805714D01*
X139247619Y-93758095D01*
X140152380Y-92853333D02*
X140152380Y-93329523D01*
X139152380Y-93329523D01*
X139200000Y-91234285D02*
X139152380Y-91329523D01*
X139152380Y-91472380D01*
X139200000Y-91615238D01*
X139295238Y-91710476D01*
X139390476Y-91758095D01*
X139580952Y-91805714D01*
X139723809Y-91805714D01*
X139914285Y-91758095D01*
X140009523Y-91710476D01*
X140104761Y-91615238D01*
X140152380Y-91472380D01*
X140152380Y-91377142D01*
X140104761Y-91234285D01*
X140057142Y-91186666D01*
X139723809Y-91186666D01*
X139723809Y-91377142D01*
X139485714Y-90758095D02*
X140152380Y-90758095D01*
X139580952Y-90758095D02*
X139533333Y-90710476D01*
X139485714Y-90615238D01*
X139485714Y-90472380D01*
X139533333Y-90377142D01*
X139628571Y-90329523D01*
X140152380Y-90329523D01*
X140152380Y-89424761D02*
X139152380Y-89424761D01*
X140104761Y-89424761D02*
X140152380Y-89520000D01*
X140152380Y-89710476D01*
X140104761Y-89805714D01*
X140057142Y-89853333D01*
X139961904Y-89900952D01*
X139676190Y-89900952D01*
X139580952Y-89853333D01*
X139533333Y-89805714D01*
X139485714Y-89710476D01*
X139485714Y-89520000D01*
X139533333Y-89424761D01*
X118848571Y-124531428D02*
X119610476Y-124531428D01*
X119229523Y-124912380D02*
X119229523Y-124150476D01*
X120562857Y-123912380D02*
X120086666Y-123912380D01*
X120039047Y-124388571D01*
X120086666Y-124340952D01*
X120181904Y-124293333D01*
X120420000Y-124293333D01*
X120515238Y-124340952D01*
X120562857Y-124388571D01*
X120610476Y-124483809D01*
X120610476Y-124721904D01*
X120562857Y-124817142D01*
X120515238Y-124864761D01*
X120420000Y-124912380D01*
X120181904Y-124912380D01*
X120086666Y-124864761D01*
X120039047Y-124817142D01*
X120896190Y-123912380D02*
X121229523Y-124912380D01*
X121562857Y-123912380D01*
X123181904Y-123960000D02*
X123086666Y-123912380D01*
X122943809Y-123912380D01*
X122800952Y-123960000D01*
X122705714Y-124055238D01*
X122658095Y-124150476D01*
X122610476Y-124340952D01*
X122610476Y-124483809D01*
X122658095Y-124674285D01*
X122705714Y-124769523D01*
X122800952Y-124864761D01*
X122943809Y-124912380D01*
X123039047Y-124912380D01*
X123181904Y-124864761D01*
X123229523Y-124817142D01*
X123229523Y-124483809D01*
X123039047Y-124483809D01*
X123658095Y-124245714D02*
X123658095Y-124912380D01*
X123658095Y-124340952D02*
X123705714Y-124293333D01*
X123800952Y-124245714D01*
X123943809Y-124245714D01*
X124039047Y-124293333D01*
X124086666Y-124388571D01*
X124086666Y-124912380D01*
X124991428Y-124912380D02*
X124991428Y-123912380D01*
X124991428Y-124864761D02*
X124896190Y-124912380D01*
X124705714Y-124912380D01*
X124610476Y-124864761D01*
X124562857Y-124817142D01*
X124515238Y-124721904D01*
X124515238Y-124436190D01*
X124562857Y-124340952D01*
X124610476Y-124293333D01*
X124705714Y-124245714D01*
X124896190Y-124245714D01*
X124991428Y-124293333D01*
X76137142Y-124531428D02*
X76899047Y-124531428D01*
X76518095Y-124912380D02*
X76518095Y-124150476D01*
X77851428Y-123912380D02*
X77375238Y-123912380D01*
X77327619Y-124388571D01*
X77375238Y-124340952D01*
X77470476Y-124293333D01*
X77708571Y-124293333D01*
X77803809Y-124340952D01*
X77851428Y-124388571D01*
X77899047Y-124483809D01*
X77899047Y-124721904D01*
X77851428Y-124817142D01*
X77803809Y-124864761D01*
X77708571Y-124912380D01*
X77470476Y-124912380D01*
X77375238Y-124864761D01*
X77327619Y-124817142D01*
X78184761Y-123912380D02*
X78518095Y-124912380D01*
X78851428Y-123912380D01*
X79946666Y-124912380D02*
X79946666Y-123912380D01*
X80184761Y-123912380D01*
X80327619Y-123960000D01*
X80422857Y-124055238D01*
X80470476Y-124150476D01*
X80518095Y-124340952D01*
X80518095Y-124483809D01*
X80470476Y-124674285D01*
X80422857Y-124769523D01*
X80327619Y-124864761D01*
X80184761Y-124912380D01*
X79946666Y-124912380D01*
X81375238Y-124912380D02*
X81375238Y-124388571D01*
X81327619Y-124293333D01*
X81232380Y-124245714D01*
X81041904Y-124245714D01*
X80946666Y-124293333D01*
X81375238Y-124864761D02*
X81280000Y-124912380D01*
X81041904Y-124912380D01*
X80946666Y-124864761D01*
X80899047Y-124769523D01*
X80899047Y-124674285D01*
X80946666Y-124579047D01*
X81041904Y-124531428D01*
X81280000Y-124531428D01*
X81375238Y-124483809D01*
X81708571Y-124245714D02*
X82089523Y-124245714D01*
X81851428Y-123912380D02*
X81851428Y-124769523D01*
X81899047Y-124864761D01*
X81994285Y-124912380D01*
X82089523Y-124912380D01*
X82851428Y-124912380D02*
X82851428Y-124388571D01*
X82803809Y-124293333D01*
X82708571Y-124245714D01*
X82518095Y-124245714D01*
X82422857Y-124293333D01*
X82851428Y-124864761D02*
X82756190Y-124912380D01*
X82518095Y-124912380D01*
X82422857Y-124864761D01*
X82375238Y-124769523D01*
X82375238Y-124674285D01*
X82422857Y-124579047D01*
X82518095Y-124531428D01*
X82756190Y-124531428D01*
X82851428Y-124483809D01*
X84613333Y-123960000D02*
X84518095Y-123912380D01*
X84375238Y-123912380D01*
X84232380Y-123960000D01*
X84137142Y-124055238D01*
X84089523Y-124150476D01*
X84041904Y-124340952D01*
X84041904Y-124483809D01*
X84089523Y-124674285D01*
X84137142Y-124769523D01*
X84232380Y-124864761D01*
X84375238Y-124912380D01*
X84470476Y-124912380D01*
X84613333Y-124864761D01*
X84660952Y-124817142D01*
X84660952Y-124483809D01*
X84470476Y-124483809D01*
X85089523Y-124245714D02*
X85089523Y-124912380D01*
X85089523Y-124340952D02*
X85137142Y-124293333D01*
X85232380Y-124245714D01*
X85375238Y-124245714D01*
X85470476Y-124293333D01*
X85518095Y-124388571D01*
X85518095Y-124912380D01*
X86422857Y-124912380D02*
X86422857Y-123912380D01*
X86422857Y-124864761D02*
X86327619Y-124912380D01*
X86137142Y-124912380D01*
X86041904Y-124864761D01*
X85994285Y-124817142D01*
X85946666Y-124721904D01*
X85946666Y-124436190D01*
X85994285Y-124340952D01*
X86041904Y-124293333D01*
X86137142Y-124245714D01*
X86327619Y-124245714D01*
X86422857Y-124293333D01*
%TO.C,C1*%
X68373333Y-80467142D02*
X68325714Y-80514761D01*
X68182857Y-80562380D01*
X68087619Y-80562380D01*
X67944761Y-80514761D01*
X67849523Y-80419523D01*
X67801904Y-80324285D01*
X67754285Y-80133809D01*
X67754285Y-79990952D01*
X67801904Y-79800476D01*
X67849523Y-79705238D01*
X67944761Y-79610000D01*
X68087619Y-79562380D01*
X68182857Y-79562380D01*
X68325714Y-79610000D01*
X68373333Y-79657619D01*
X69325714Y-80562380D02*
X68754285Y-80562380D01*
X69040000Y-80562380D02*
X69040000Y-79562380D01*
X68944761Y-79705238D01*
X68849523Y-79800476D01*
X68754285Y-79848095D01*
X66516190Y-93062380D02*
X65944761Y-93062380D01*
X66230476Y-93062380D02*
X66230476Y-92062380D01*
X66135238Y-92205238D01*
X66040000Y-92300476D01*
X65944761Y-92348095D01*
X67135238Y-92062380D02*
X67230476Y-92062380D01*
X67325714Y-92110000D01*
X67373333Y-92157619D01*
X67420952Y-92252857D01*
X67468571Y-92443333D01*
X67468571Y-92681428D01*
X67420952Y-92871904D01*
X67373333Y-92967142D01*
X67325714Y-93014761D01*
X67230476Y-93062380D01*
X67135238Y-93062380D01*
X67040000Y-93014761D01*
X66992380Y-92967142D01*
X66944761Y-92871904D01*
X66897142Y-92681428D01*
X66897142Y-92443333D01*
X66944761Y-92252857D01*
X66992380Y-92157619D01*
X67040000Y-92110000D01*
X67135238Y-92062380D01*
X68087619Y-92062380D02*
X68182857Y-92062380D01*
X68278095Y-92110000D01*
X68325714Y-92157619D01*
X68373333Y-92252857D01*
X68420952Y-92443333D01*
X68420952Y-92681428D01*
X68373333Y-92871904D01*
X68325714Y-92967142D01*
X68278095Y-93014761D01*
X68182857Y-93062380D01*
X68087619Y-93062380D01*
X67992380Y-93014761D01*
X67944761Y-92967142D01*
X67897142Y-92871904D01*
X67849523Y-92681428D01*
X67849523Y-92443333D01*
X67897142Y-92252857D01*
X67944761Y-92157619D01*
X67992380Y-92110000D01*
X68087619Y-92062380D01*
X69040000Y-92062380D02*
X69135238Y-92062380D01*
X69230476Y-92110000D01*
X69278095Y-92157619D01*
X69325714Y-92252857D01*
X69373333Y-92443333D01*
X69373333Y-92681428D01*
X69325714Y-92871904D01*
X69278095Y-92967142D01*
X69230476Y-93014761D01*
X69135238Y-93062380D01*
X69040000Y-93062380D01*
X68944761Y-93014761D01*
X68897142Y-92967142D01*
X68849523Y-92871904D01*
X68801904Y-92681428D01*
X68801904Y-92443333D01*
X68849523Y-92252857D01*
X68897142Y-92157619D01*
X68944761Y-92110000D01*
X69040000Y-92062380D01*
X70230476Y-92395714D02*
X70230476Y-93062380D01*
X69801904Y-92395714D02*
X69801904Y-92919523D01*
X69849523Y-93014761D01*
X69944761Y-93062380D01*
X70087619Y-93062380D01*
X70182857Y-93014761D01*
X70230476Y-92967142D01*
X71040000Y-92538571D02*
X70706666Y-92538571D01*
X70706666Y-93062380D02*
X70706666Y-92062380D01*
X71182857Y-92062380D01*
%TO.C,A1*%
X100895714Y-75096666D02*
X101371904Y-75096666D01*
X100800476Y-75382380D02*
X101133809Y-74382380D01*
X101467142Y-75382380D01*
X102324285Y-75382380D02*
X101752857Y-75382380D01*
X102038571Y-75382380D02*
X102038571Y-74382380D01*
X101943333Y-74525238D01*
X101848095Y-74620476D01*
X101752857Y-74668095D01*
X101766666Y-101377142D02*
X101766666Y-100900952D01*
X102052380Y-101472380D02*
X101052380Y-101139047D01*
X102052380Y-100805714D01*
X102052380Y-100472380D02*
X101385714Y-100472380D01*
X101576190Y-100472380D02*
X101480952Y-100424761D01*
X101433333Y-100377142D01*
X101385714Y-100281904D01*
X101385714Y-100186666D01*
X102052380Y-99424761D02*
X101052380Y-99424761D01*
X102004761Y-99424761D02*
X102052380Y-99520000D01*
X102052380Y-99710476D01*
X102004761Y-99805714D01*
X101957142Y-99853333D01*
X101861904Y-99900952D01*
X101576190Y-99900952D01*
X101480952Y-99853333D01*
X101433333Y-99805714D01*
X101385714Y-99710476D01*
X101385714Y-99520000D01*
X101433333Y-99424761D01*
X101385714Y-98520000D02*
X102052380Y-98520000D01*
X101385714Y-98948571D02*
X101909523Y-98948571D01*
X102004761Y-98900952D01*
X102052380Y-98805714D01*
X102052380Y-98662857D01*
X102004761Y-98567619D01*
X101957142Y-98520000D01*
X102052380Y-98043809D02*
X101385714Y-98043809D01*
X101052380Y-98043809D02*
X101100000Y-98091428D01*
X101147619Y-98043809D01*
X101100000Y-97996190D01*
X101052380Y-98043809D01*
X101147619Y-98043809D01*
X101385714Y-97567619D02*
X102052380Y-97567619D01*
X101480952Y-97567619D02*
X101433333Y-97520000D01*
X101385714Y-97424761D01*
X101385714Y-97281904D01*
X101433333Y-97186666D01*
X101528571Y-97139047D01*
X102052380Y-97139047D01*
X102052380Y-96520000D02*
X102004761Y-96615238D01*
X101957142Y-96662857D01*
X101861904Y-96710476D01*
X101576190Y-96710476D01*
X101480952Y-96662857D01*
X101433333Y-96615238D01*
X101385714Y-96520000D01*
X101385714Y-96377142D01*
X101433333Y-96281904D01*
X101480952Y-96234285D01*
X101576190Y-96186666D01*
X101861904Y-96186666D01*
X101957142Y-96234285D01*
X102004761Y-96281904D01*
X102052380Y-96377142D01*
X102052380Y-96520000D01*
X102052380Y-94996190D02*
X101052380Y-94996190D01*
X102052380Y-94424761D01*
X101052380Y-94424761D01*
X102052380Y-93520000D02*
X101528571Y-93520000D01*
X101433333Y-93567619D01*
X101385714Y-93662857D01*
X101385714Y-93853333D01*
X101433333Y-93948571D01*
X102004761Y-93520000D02*
X102052380Y-93615238D01*
X102052380Y-93853333D01*
X102004761Y-93948571D01*
X101909523Y-93996190D01*
X101814285Y-93996190D01*
X101719047Y-93948571D01*
X101671428Y-93853333D01*
X101671428Y-93615238D01*
X101623809Y-93520000D01*
X101385714Y-93043809D02*
X102052380Y-93043809D01*
X101480952Y-93043809D02*
X101433333Y-92996190D01*
X101385714Y-92900952D01*
X101385714Y-92758095D01*
X101433333Y-92662857D01*
X101528571Y-92615238D01*
X102052380Y-92615238D01*
X102052380Y-91996190D02*
X102004761Y-92091428D01*
X101957142Y-92139047D01*
X101861904Y-92186666D01*
X101576190Y-92186666D01*
X101480952Y-92139047D01*
X101433333Y-92091428D01*
X101385714Y-91996190D01*
X101385714Y-91853333D01*
X101433333Y-91758095D01*
X101480952Y-91710476D01*
X101576190Y-91662857D01*
X101861904Y-91662857D01*
X101957142Y-91710476D01*
X102004761Y-91758095D01*
X102052380Y-91853333D01*
X102052380Y-91996190D01*
%TO.C,Q2*%
X80547619Y-95345238D02*
X80500000Y-95440476D01*
X80404761Y-95535714D01*
X80261904Y-95678571D01*
X80214285Y-95773809D01*
X80214285Y-95869047D01*
X80452380Y-95821428D02*
X80404761Y-95916666D01*
X80309523Y-96011904D01*
X80119047Y-96059523D01*
X79785714Y-96059523D01*
X79595238Y-96011904D01*
X79500000Y-95916666D01*
X79452380Y-95821428D01*
X79452380Y-95630952D01*
X79500000Y-95535714D01*
X79595238Y-95440476D01*
X79785714Y-95392857D01*
X80119047Y-95392857D01*
X80309523Y-95440476D01*
X80404761Y-95535714D01*
X80452380Y-95630952D01*
X80452380Y-95821428D01*
X79547619Y-95011904D02*
X79500000Y-94964285D01*
X79452380Y-94869047D01*
X79452380Y-94630952D01*
X79500000Y-94535714D01*
X79547619Y-94488095D01*
X79642857Y-94440476D01*
X79738095Y-94440476D01*
X79880952Y-94488095D01*
X80452380Y-95059523D01*
X80452380Y-94440476D01*
X72957619Y-97964285D02*
X72910000Y-97916666D01*
X72862380Y-97821428D01*
X72862380Y-97583333D01*
X72910000Y-97488095D01*
X72957619Y-97440476D01*
X73052857Y-97392857D01*
X73148095Y-97392857D01*
X73290952Y-97440476D01*
X73862380Y-98011904D01*
X73862380Y-97392857D01*
X73862380Y-96964285D02*
X72862380Y-96964285D01*
X73862380Y-96392857D01*
X72862380Y-96392857D01*
X72862380Y-96011904D02*
X72862380Y-95345238D01*
X73862380Y-95773809D01*
X72862380Y-94773809D02*
X72862380Y-94678571D01*
X72910000Y-94583333D01*
X72957619Y-94535714D01*
X73052857Y-94488095D01*
X73243333Y-94440476D01*
X73481428Y-94440476D01*
X73671904Y-94488095D01*
X73767142Y-94535714D01*
X73814761Y-94583333D01*
X73862380Y-94678571D01*
X73862380Y-94773809D01*
X73814761Y-94869047D01*
X73767142Y-94916666D01*
X73671904Y-94964285D01*
X73481428Y-95011904D01*
X73243333Y-95011904D01*
X73052857Y-94964285D01*
X72957619Y-94916666D01*
X72910000Y-94869047D01*
X72862380Y-94773809D01*
X72862380Y-93821428D02*
X72862380Y-93726190D01*
X72910000Y-93630952D01*
X72957619Y-93583333D01*
X73052857Y-93535714D01*
X73243333Y-93488095D01*
X73481428Y-93488095D01*
X73671904Y-93535714D01*
X73767142Y-93583333D01*
X73814761Y-93630952D01*
X73862380Y-93726190D01*
X73862380Y-93821428D01*
X73814761Y-93916666D01*
X73767142Y-93964285D01*
X73671904Y-94011904D01*
X73481428Y-94059523D01*
X73243333Y-94059523D01*
X73052857Y-94011904D01*
X72957619Y-93964285D01*
X72910000Y-93916666D01*
X72862380Y-93821428D01*
X72862380Y-92869047D02*
X72862380Y-92773809D01*
X72910000Y-92678571D01*
X72957619Y-92630952D01*
X73052857Y-92583333D01*
X73243333Y-92535714D01*
X73481428Y-92535714D01*
X73671904Y-92583333D01*
X73767142Y-92630952D01*
X73814761Y-92678571D01*
X73862380Y-92773809D01*
X73862380Y-92869047D01*
X73814761Y-92964285D01*
X73767142Y-93011904D01*
X73671904Y-93059523D01*
X73481428Y-93107142D01*
X73243333Y-93107142D01*
X73052857Y-93059523D01*
X72957619Y-93011904D01*
X72910000Y-92964285D01*
X72862380Y-92869047D01*
%TO.C,Q1*%
X83087619Y-102965238D02*
X83040000Y-103060476D01*
X82944761Y-103155714D01*
X82801904Y-103298571D01*
X82754285Y-103393809D01*
X82754285Y-103489047D01*
X82992380Y-103441428D02*
X82944761Y-103536666D01*
X82849523Y-103631904D01*
X82659047Y-103679523D01*
X82325714Y-103679523D01*
X82135238Y-103631904D01*
X82040000Y-103536666D01*
X81992380Y-103441428D01*
X81992380Y-103250952D01*
X82040000Y-103155714D01*
X82135238Y-103060476D01*
X82325714Y-103012857D01*
X82659047Y-103012857D01*
X82849523Y-103060476D01*
X82944761Y-103155714D01*
X82992380Y-103250952D01*
X82992380Y-103441428D01*
X82992380Y-102060476D02*
X82992380Y-102631904D01*
X82992380Y-102346190D02*
X81992380Y-102346190D01*
X82135238Y-102441428D01*
X82230476Y-102536666D01*
X82278095Y-102631904D01*
X75497619Y-105584285D02*
X75450000Y-105536666D01*
X75402380Y-105441428D01*
X75402380Y-105203333D01*
X75450000Y-105108095D01*
X75497619Y-105060476D01*
X75592857Y-105012857D01*
X75688095Y-105012857D01*
X75830952Y-105060476D01*
X76402380Y-105631904D01*
X76402380Y-105012857D01*
X76402380Y-104584285D02*
X75402380Y-104584285D01*
X76402380Y-104012857D01*
X75402380Y-104012857D01*
X75402380Y-103631904D02*
X75402380Y-102965238D01*
X76402380Y-103393809D01*
X75402380Y-102393809D02*
X75402380Y-102298571D01*
X75450000Y-102203333D01*
X75497619Y-102155714D01*
X75592857Y-102108095D01*
X75783333Y-102060476D01*
X76021428Y-102060476D01*
X76211904Y-102108095D01*
X76307142Y-102155714D01*
X76354761Y-102203333D01*
X76402380Y-102298571D01*
X76402380Y-102393809D01*
X76354761Y-102489047D01*
X76307142Y-102536666D01*
X76211904Y-102584285D01*
X76021428Y-102631904D01*
X75783333Y-102631904D01*
X75592857Y-102584285D01*
X75497619Y-102536666D01*
X75450000Y-102489047D01*
X75402380Y-102393809D01*
X75402380Y-101441428D02*
X75402380Y-101346190D01*
X75450000Y-101250952D01*
X75497619Y-101203333D01*
X75592857Y-101155714D01*
X75783333Y-101108095D01*
X76021428Y-101108095D01*
X76211904Y-101155714D01*
X76307142Y-101203333D01*
X76354761Y-101250952D01*
X76402380Y-101346190D01*
X76402380Y-101441428D01*
X76354761Y-101536666D01*
X76307142Y-101584285D01*
X76211904Y-101631904D01*
X76021428Y-101679523D01*
X75783333Y-101679523D01*
X75592857Y-101631904D01*
X75497619Y-101584285D01*
X75450000Y-101536666D01*
X75402380Y-101441428D01*
X75402380Y-100489047D02*
X75402380Y-100393809D01*
X75450000Y-100298571D01*
X75497619Y-100250952D01*
X75592857Y-100203333D01*
X75783333Y-100155714D01*
X76021428Y-100155714D01*
X76211904Y-100203333D01*
X76307142Y-100250952D01*
X76354761Y-100298571D01*
X76402380Y-100393809D01*
X76402380Y-100489047D01*
X76354761Y-100584285D01*
X76307142Y-100631904D01*
X76211904Y-100679523D01*
X76021428Y-100727142D01*
X75783333Y-100727142D01*
X75592857Y-100679523D01*
X75497619Y-100631904D01*
X75450000Y-100584285D01*
X75402380Y-100489047D01*
%TO.C,R5*%
X119832380Y-78906666D02*
X119356190Y-79240000D01*
X119832380Y-79478095D02*
X118832380Y-79478095D01*
X118832380Y-79097142D01*
X118880000Y-79001904D01*
X118927619Y-78954285D01*
X119022857Y-78906666D01*
X119165714Y-78906666D01*
X119260952Y-78954285D01*
X119308571Y-79001904D01*
X119356190Y-79097142D01*
X119356190Y-79478095D01*
X118832380Y-78001904D02*
X118832380Y-78478095D01*
X119308571Y-78525714D01*
X119260952Y-78478095D01*
X119213333Y-78382857D01*
X119213333Y-78144761D01*
X119260952Y-78049523D01*
X119308571Y-78001904D01*
X119403809Y-77954285D01*
X119641904Y-77954285D01*
X119737142Y-78001904D01*
X119784761Y-78049523D01*
X119832380Y-78144761D01*
X119832380Y-78382857D01*
X119784761Y-78478095D01*
X119737142Y-78525714D01*
X119165714Y-74350476D02*
X119832380Y-74350476D01*
X118784761Y-74588571D02*
X119499047Y-74826666D01*
X119499047Y-74207619D01*
X119832380Y-73826666D02*
X118832380Y-73826666D01*
X119451428Y-73731428D02*
X119832380Y-73445714D01*
X119165714Y-73445714D02*
X119546666Y-73826666D01*
X118832380Y-73112380D02*
X118832380Y-72445714D01*
X119832380Y-72874285D01*
%TO.C,R4*%
X114752380Y-78906666D02*
X114276190Y-79240000D01*
X114752380Y-79478095D02*
X113752380Y-79478095D01*
X113752380Y-79097142D01*
X113800000Y-79001904D01*
X113847619Y-78954285D01*
X113942857Y-78906666D01*
X114085714Y-78906666D01*
X114180952Y-78954285D01*
X114228571Y-79001904D01*
X114276190Y-79097142D01*
X114276190Y-79478095D01*
X114085714Y-78049523D02*
X114752380Y-78049523D01*
X113704761Y-78287619D02*
X114419047Y-78525714D01*
X114419047Y-77906666D01*
X114085714Y-74350476D02*
X114752380Y-74350476D01*
X113704761Y-74588571D02*
X114419047Y-74826666D01*
X114419047Y-74207619D01*
X114752380Y-73826666D02*
X113752380Y-73826666D01*
X114371428Y-73731428D02*
X114752380Y-73445714D01*
X114085714Y-73445714D02*
X114466666Y-73826666D01*
X113752380Y-73112380D02*
X113752380Y-72445714D01*
X114752380Y-72874285D01*
%TO.C,R3*%
X84442380Y-83986666D02*
X83966190Y-84320000D01*
X84442380Y-84558095D02*
X83442380Y-84558095D01*
X83442380Y-84177142D01*
X83490000Y-84081904D01*
X83537619Y-84034285D01*
X83632857Y-83986666D01*
X83775714Y-83986666D01*
X83870952Y-84034285D01*
X83918571Y-84081904D01*
X83966190Y-84177142D01*
X83966190Y-84558095D01*
X83442380Y-83653333D02*
X83442380Y-83034285D01*
X83823333Y-83367619D01*
X83823333Y-83224761D01*
X83870952Y-83129523D01*
X83918571Y-83081904D01*
X84013809Y-83034285D01*
X84251904Y-83034285D01*
X84347142Y-83081904D01*
X84394761Y-83129523D01*
X84442380Y-83224761D01*
X84442380Y-83510476D01*
X84394761Y-83605714D01*
X84347142Y-83653333D01*
X83367619Y-79906666D02*
X83320000Y-79859047D01*
X83272380Y-79763809D01*
X83272380Y-79525714D01*
X83320000Y-79430476D01*
X83367619Y-79382857D01*
X83462857Y-79335238D01*
X83558095Y-79335238D01*
X83700952Y-79382857D01*
X84272380Y-79954285D01*
X84272380Y-79335238D01*
X84272380Y-78906666D02*
X83272380Y-78906666D01*
X83891428Y-78811428D02*
X84272380Y-78525714D01*
X83605714Y-78525714D02*
X83986666Y-78906666D01*
X83367619Y-78144761D02*
X83320000Y-78097142D01*
X83272380Y-78001904D01*
X83272380Y-77763809D01*
X83320000Y-77668571D01*
X83367619Y-77620952D01*
X83462857Y-77573333D01*
X83558095Y-77573333D01*
X83700952Y-77620952D01*
X84272380Y-78192380D01*
X84272380Y-77573333D01*
%TO.C,R2*%
X79362380Y-83986666D02*
X78886190Y-84320000D01*
X79362380Y-84558095D02*
X78362380Y-84558095D01*
X78362380Y-84177142D01*
X78410000Y-84081904D01*
X78457619Y-84034285D01*
X78552857Y-83986666D01*
X78695714Y-83986666D01*
X78790952Y-84034285D01*
X78838571Y-84081904D01*
X78886190Y-84177142D01*
X78886190Y-84558095D01*
X78457619Y-83605714D02*
X78410000Y-83558095D01*
X78362380Y-83462857D01*
X78362380Y-83224761D01*
X78410000Y-83129523D01*
X78457619Y-83081904D01*
X78552857Y-83034285D01*
X78648095Y-83034285D01*
X78790952Y-83081904D01*
X79362380Y-83653333D01*
X79362380Y-83034285D01*
X78287619Y-79906666D02*
X78240000Y-79859047D01*
X78192380Y-79763809D01*
X78192380Y-79525714D01*
X78240000Y-79430476D01*
X78287619Y-79382857D01*
X78382857Y-79335238D01*
X78478095Y-79335238D01*
X78620952Y-79382857D01*
X79192380Y-79954285D01*
X79192380Y-79335238D01*
X79192380Y-78906666D02*
X78192380Y-78906666D01*
X78811428Y-78811428D02*
X79192380Y-78525714D01*
X78525714Y-78525714D02*
X78906666Y-78906666D01*
X78287619Y-78144761D02*
X78240000Y-78097142D01*
X78192380Y-78001904D01*
X78192380Y-77763809D01*
X78240000Y-77668571D01*
X78287619Y-77620952D01*
X78382857Y-77573333D01*
X78478095Y-77573333D01*
X78620952Y-77620952D01*
X79192380Y-78192380D01*
X79192380Y-77573333D01*
%TO.C,R1*%
X86982380Y-104306666D02*
X86506190Y-104640000D01*
X86982380Y-104878095D02*
X85982380Y-104878095D01*
X85982380Y-104497142D01*
X86030000Y-104401904D01*
X86077619Y-104354285D01*
X86172857Y-104306666D01*
X86315714Y-104306666D01*
X86410952Y-104354285D01*
X86458571Y-104401904D01*
X86506190Y-104497142D01*
X86506190Y-104878095D01*
X86982380Y-103354285D02*
X86982380Y-103925714D01*
X86982380Y-103640000D02*
X85982380Y-103640000D01*
X86125238Y-103735238D01*
X86220476Y-103830476D01*
X86268095Y-103925714D01*
X86145714Y-100321904D02*
X86812380Y-100321904D01*
X85764761Y-100560000D02*
X86479047Y-100798095D01*
X86479047Y-100179047D01*
X85812380Y-99893333D02*
X85812380Y-99226666D01*
X86812380Y-99655238D01*
X85812380Y-98655238D02*
X85812380Y-98560000D01*
X85860000Y-98464761D01*
X85907619Y-98417142D01*
X86002857Y-98369523D01*
X86193333Y-98321904D01*
X86431428Y-98321904D01*
X86621904Y-98369523D01*
X86717142Y-98417142D01*
X86764761Y-98464761D01*
X86812380Y-98560000D01*
X86812380Y-98655238D01*
X86764761Y-98750476D01*
X86717142Y-98798095D01*
X86621904Y-98845714D01*
X86431428Y-98893333D01*
X86193333Y-98893333D01*
X86002857Y-98845714D01*
X85907619Y-98798095D01*
X85860000Y-98750476D01*
X85812380Y-98655238D01*
X86812380Y-97321904D02*
X86336190Y-97655238D01*
X86812380Y-97893333D02*
X85812380Y-97893333D01*
X85812380Y-97512380D01*
X85860000Y-97417142D01*
X85907619Y-97369523D01*
X86002857Y-97321904D01*
X86145714Y-97321904D01*
X86240952Y-97369523D01*
X86288571Y-97417142D01*
X86336190Y-97512380D01*
X86336190Y-97893333D01*
%TO.C,J3*%
X124912380Y-97615690D02*
X123912380Y-97615690D01*
X124007619Y-97187119D02*
X123960000Y-97139500D01*
X123912380Y-97044261D01*
X123912380Y-96806166D01*
X123960000Y-96710928D01*
X124007619Y-96663309D01*
X124102857Y-96615690D01*
X124198095Y-96615690D01*
X124340952Y-96663309D01*
X124912380Y-97234738D01*
X124912380Y-96615690D01*
X124817142Y-95615690D02*
X124864761Y-95663309D01*
X124912380Y-95806166D01*
X124912380Y-95901404D01*
X124864761Y-96044261D01*
X124769523Y-96139500D01*
X124674285Y-96187119D01*
X124483809Y-96234738D01*
X124340952Y-96234738D01*
X124150476Y-96187119D01*
X124055238Y-96139500D01*
X123960000Y-96044261D01*
X123912380Y-95901404D01*
X123912380Y-95806166D01*
X123960000Y-95663309D01*
X124007619Y-95615690D01*
D11*
%TO.C,C1*%
X73660000Y-86360000D02*
G75*
G03*
X73660000Y-86360000I-5120000J0D01*
G01*
%TO.C,A1*%
X95260000Y-78740000D02*
X92590000Y-78740000D01*
X110630000Y-119510000D02*
X110630000Y-76070000D01*
X92590000Y-81280000D02*
X92590000Y-119510000D01*
X95260000Y-116840000D02*
X92590000Y-116840000D01*
X107960000Y-78740000D02*
X107960000Y-116840000D01*
X95260000Y-81280000D02*
X95260000Y-78740000D01*
X107960000Y-116840000D02*
X110630000Y-116840000D01*
X107960000Y-78740000D02*
X110630000Y-78740000D01*
X95260000Y-81280000D02*
X92590000Y-81280000D01*
X110630000Y-76070000D02*
X92590000Y-76070000D01*
X92590000Y-119510000D02*
X110630000Y-119510000D01*
X92590000Y-76070000D02*
X92590000Y-78740000D01*
X95260000Y-81280000D02*
X95260000Y-116840000D01*
%TO.C,Q2*%
X74350000Y-93450000D02*
X74350000Y-97050000D01*
X78650000Y-94430000D02*
G75*
G03*
X74357844Y-93438547I-2450000J-820000D01*
G01*
X74372316Y-97058445D02*
G75*
G03*
X78650000Y-96030000I1827684J1808445D01*
G01*
%TO.C,Q1*%
X76890000Y-101070000D02*
X76890000Y-104670000D01*
X81190000Y-102050000D02*
G75*
G03*
X76897844Y-101058547I-2450000J-820000D01*
G01*
X76912316Y-104678445D02*
G75*
G03*
X81190000Y-103650000I1827684J1808445D01*
G01*
%TO.C,R5*%
X121920000Y-80240000D02*
X121920000Y-79470000D01*
X121920000Y-72160000D02*
X121920000Y-72930000D01*
X123290000Y-72930000D02*
X120550000Y-72930000D01*
X120550000Y-79470000D02*
X123290000Y-79470000D01*
X120550000Y-72930000D02*
X120550000Y-79470000D01*
X123290000Y-79470000D02*
X123290000Y-72930000D01*
%TO.C,R4*%
X116840000Y-80240000D02*
X116840000Y-79470000D01*
X116840000Y-72160000D02*
X116840000Y-72930000D01*
X118210000Y-72930000D02*
X115470000Y-72930000D01*
X115470000Y-79470000D02*
X118210000Y-79470000D01*
X115470000Y-72930000D02*
X115470000Y-79470000D01*
X118210000Y-79470000D02*
X118210000Y-72930000D01*
%TO.C,R3*%
X86360000Y-77240000D02*
X86360000Y-78010000D01*
X86360000Y-85320000D02*
X86360000Y-84550000D01*
X84990000Y-84550000D02*
X87730000Y-84550000D01*
X87730000Y-78010000D02*
X84990000Y-78010000D01*
X87730000Y-84550000D02*
X87730000Y-78010000D01*
X84990000Y-78010000D02*
X84990000Y-84550000D01*
%TO.C,R2*%
X81280000Y-77240000D02*
X81280000Y-78010000D01*
X81280000Y-85320000D02*
X81280000Y-84550000D01*
X79910000Y-84550000D02*
X82650000Y-84550000D01*
X82650000Y-78010000D02*
X79910000Y-78010000D01*
X82650000Y-84550000D02*
X82650000Y-78010000D01*
X79910000Y-78010000D02*
X79910000Y-84550000D01*
%TO.C,R1*%
X88900000Y-97560000D02*
X88900000Y-98330000D01*
X88900000Y-105640000D02*
X88900000Y-104870000D01*
X87530000Y-104870000D02*
X90270000Y-104870000D01*
X90270000Y-98330000D02*
X87530000Y-98330000D01*
X90270000Y-104870000D02*
X90270000Y-98330000D01*
X87530000Y-98330000D02*
X87530000Y-104870000D01*
%TO.C,J2*%
X73720000Y-121805000D02*
X88840000Y-121805000D01*
X80246000Y-118384000D02*
X80211000Y-118419000D01*
X82350000Y-115870000D02*
X82315000Y-115906000D01*
X87555000Y-116076000D02*
X87508000Y-116122000D01*
X82555000Y-116076000D02*
X82508000Y-116122000D01*
X73480000Y-122045000D02*
X73980000Y-122045000D01*
X80053000Y-118168000D02*
X80006000Y-118214000D01*
X85246000Y-118384000D02*
X85211000Y-118419000D01*
X73720000Y-121245000D02*
X88840000Y-121245000D01*
X87350000Y-115870000D02*
X87315000Y-115906000D01*
X88840000Y-111884000D02*
X88840000Y-121805000D01*
X85053000Y-118168000D02*
X85006000Y-118214000D01*
X73720000Y-119745000D02*
X88840000Y-119745000D01*
X73480000Y-121305000D02*
X73480000Y-122045000D01*
X73720000Y-111884000D02*
X88840000Y-111884000D01*
X73720000Y-111884000D02*
X73720000Y-121805000D01*
X73720000Y-114844000D02*
X88840000Y-114844000D01*
X76964000Y-115610000D02*
G75*
G03*
X75596958Y-115609573I-684001J-1534993D01*
G01*
X76280000Y-118825000D02*
G75*
G03*
X76963318Y-118679756I0J1680000D01*
G01*
X75596000Y-118680000D02*
G75*
G03*
X76308805Y-118825253I683999J1535001D01*
G01*
X77815001Y-117829000D02*
G75*
G03*
X77815427Y-116461958I-1535001J684000D01*
G01*
X74745000Y-116461000D02*
G75*
G03*
X74744573Y-117828042I1534993J-684001D01*
G01*
X87960000Y-117145000D02*
G75*
G03*
X87960000Y-117145000I-1680000J0D01*
G01*
X82960000Y-117145000D02*
G75*
G03*
X82960000Y-117145000I-1680000J0D01*
G01*
%TO.C,J1*%
X127060000Y-110880000D02*
X127060000Y-122200000D01*
X118098000Y-118387000D02*
X117992000Y-118494000D01*
X116780000Y-121640000D02*
X127060000Y-121640000D01*
X121034000Y-115452000D02*
X120927000Y-115559000D01*
X125848000Y-115186000D02*
X125468000Y-115566000D01*
X120768000Y-115186000D02*
X120661000Y-115293000D01*
X116540000Y-122440000D02*
X117040000Y-122440000D01*
X116540000Y-121700000D02*
X116540000Y-122440000D01*
X123202000Y-117832000D02*
X122807000Y-118228000D01*
X123453000Y-118114000D02*
X123073000Y-118494000D01*
X126114000Y-115452000D02*
X125719000Y-115848000D01*
X116780000Y-110880000D02*
X116780000Y-122200000D01*
X116780000Y-119140000D02*
X127060000Y-119140000D01*
X116780000Y-122200000D02*
X127060000Y-122200000D01*
X116780000Y-112940000D02*
X127060000Y-112940000D01*
X117832000Y-118121000D02*
X117726000Y-118228000D01*
X116780000Y-110880000D02*
X127060000Y-110880000D01*
X126640000Y-116840000D02*
G75*
G03*
X126640000Y-116840000I-2180000J0D01*
G01*
X121560000Y-116840000D02*
G75*
G03*
X121560000Y-116840000I-2180000J0D01*
G01*
%TO.C,J3*%
X133760000Y-94140000D02*
G75*
G03*
X133760000Y-94140000I-2180000J0D01*
G01*
X133760000Y-99140000D02*
G75*
G03*
X133760000Y-99140000I-2180000J0D01*
G01*
X133760000Y-104140000D02*
G75*
G03*
X133760000Y-104140000I-2180000J0D01*
G01*
X133760000Y-89140000D02*
G75*
G03*
X133760000Y-89140000I-2180000J0D01*
G01*
X129926000Y-102752000D02*
X130033000Y-102859000D01*
X127520000Y-106700000D02*
X127520000Y-86579000D01*
X132854000Y-100147000D02*
X133234000Y-100527000D01*
X136640000Y-106700000D02*
X136640000Y-86579000D01*
X136880000Y-106940000D02*
X136880000Y-106540000D01*
X132572000Y-90398000D02*
X132968000Y-90793000D01*
X135080000Y-106700000D02*
X135080000Y-86579000D01*
X127520000Y-106700000D02*
X136640000Y-106700000D01*
X132854000Y-90147000D02*
X133234000Y-90527000D01*
X130192000Y-97486000D02*
X130588000Y-97881000D01*
X136240000Y-106940000D02*
X136880000Y-106940000D01*
X136180000Y-106700000D02*
X136180000Y-86579000D01*
X132572000Y-95398000D02*
X132968000Y-95793000D01*
X132854000Y-95147000D02*
X133234000Y-95527000D01*
X127520000Y-86579000D02*
X136640000Y-86579000D01*
X130192000Y-102486000D02*
X130299000Y-102593000D01*
X132572000Y-100398000D02*
X132968000Y-100793000D01*
X133127000Y-105422000D02*
X133234000Y-105528000D01*
X129926000Y-97752000D02*
X130306000Y-98132000D01*
X130192000Y-87486000D02*
X130588000Y-87881000D01*
X132861000Y-105688000D02*
X132968000Y-105794000D01*
X129926000Y-87752000D02*
X130306000Y-88132000D01*
X130192000Y-92486000D02*
X130588000Y-92881000D01*
X129926000Y-92752000D02*
X130306000Y-93132000D01*
%TD*%
M02*
