%TF.GenerationSoftware,KiCad,Pcbnew,(6.0.5)*%
%TF.CreationDate,2022-07-13T22:10:15+01:00*%
%TF.ProjectId,WheelchairPCBKiCad,57686565-6c63-4686-9169-725043424b69,rev?*%
%TF.SameCoordinates,Original*%
%TF.FileFunction,Copper,L1,Top*%
%TF.FilePolarity,Positive*%
%FSLAX46Y46*%
G04 Gerber Fmt 4.6, Leading zero omitted, Abs format (unit mm)*
G04 Created by KiCad (PCBNEW (6.0.5)) date 2022-07-13 22:10:15*
%MOMM*%
%LPD*%
G01*
G04 APERTURE LIST*
G04 Aperture macros list*
%AMRoundRect*
0 Rectangle with rounded corners*
0 $1 Rounding radius*
0 $2 $3 $4 $5 $6 $7 $8 $9 X,Y pos of 4 corners*
0 Add a 4 corners polygon primitive as box body*
4,1,4,$2,$3,$4,$5,$6,$7,$8,$9,$2,$3,0*
0 Add four circle primitives for the rounded corners*
1,1,$1+$1,$2,$3*
1,1,$1+$1,$4,$5*
1,1,$1+$1,$6,$7*
1,1,$1+$1,$8,$9*
0 Add four rect primitives between the rounded corners*
20,1,$1+$1,$2,$3,$4,$5,0*
20,1,$1+$1,$4,$5,$6,$7,0*
20,1,$1+$1,$6,$7,$8,$9,0*
20,1,$1+$1,$8,$9,$2,$3,0*%
G04 Aperture macros list end*
%TA.AperFunction,ComponentPad*%
%ADD10C,1.600000*%
%TD*%
%TA.AperFunction,ComponentPad*%
%ADD11R,1.600000X1.600000*%
%TD*%
%TA.AperFunction,ComponentPad*%
%ADD12O,1.600000X1.600000*%
%TD*%
%TA.AperFunction,ComponentPad*%
%ADD13R,1.800000X1.100000*%
%TD*%
%TA.AperFunction,ComponentPad*%
%ADD14RoundRect,0.275000X-0.625000X0.275000X-0.625000X-0.275000X0.625000X-0.275000X0.625000X0.275000X0*%
%TD*%
%TA.AperFunction,ComponentPad*%
%ADD15R,2.600000X2.600000*%
%TD*%
%TA.AperFunction,ComponentPad*%
%ADD16C,2.600000*%
%TD*%
%TA.AperFunction,Conductor*%
%ADD17C,0.600000*%
%TD*%
%TA.AperFunction,Conductor*%
%ADD18C,0.300000*%
%TD*%
G04 APERTURE END LIST*
D10*
%TO.P,C1,1*%
%TO.N,+5V*%
X66040000Y-86360000D03*
%TO.P,C1,2*%
%TO.N,GND*%
X71040000Y-86360000D03*
%TD*%
D11*
%TO.P,A1,1,TX1*%
%TO.N,unconnected-(A1-Pad1)*%
X93990000Y-80010000D03*
D12*
%TO.P,A1,2,RX1*%
%TO.N,unconnected-(A1-Pad2)*%
X93990000Y-82550000D03*
%TO.P,A1,3,~{RESET}*%
%TO.N,unconnected-(A1-Pad3)*%
X93990000Y-85090000D03*
%TO.P,A1,4,GND*%
%TO.N,GND*%
X93990000Y-87630000D03*
%TO.P,A1,5,D2*%
%TO.N,unconnected-(A1-Pad5)*%
X93990000Y-90170000D03*
%TO.P,A1,6,D3*%
%TO.N,unconnected-(A1-Pad6)*%
X93990000Y-92710000D03*
%TO.P,A1,7,D4*%
%TO.N,unconnected-(A1-Pad7)*%
X93990000Y-95250000D03*
%TO.P,A1,8,D5*%
%TO.N,Buffer*%
X93990000Y-97790000D03*
%TO.P,A1,9,D6*%
%TO.N,unconnected-(A1-Pad9)*%
X93990000Y-100330000D03*
%TO.P,A1,10,D7*%
%TO.N,unconnected-(A1-Pad10)*%
X93990000Y-102870000D03*
%TO.P,A1,11,D8*%
%TO.N,unconnected-(A1-Pad11)*%
X93990000Y-105410000D03*
%TO.P,A1,12,D9*%
%TO.N,unconnected-(A1-Pad12)*%
X93990000Y-107950000D03*
%TO.P,A1,13,D10*%
%TO.N,unconnected-(A1-Pad13)*%
X93990000Y-110490000D03*
%TO.P,A1,14,MOSI*%
%TO.N,unconnected-(A1-Pad14)*%
X93990000Y-113030000D03*
%TO.P,A1,15,MISO*%
%TO.N,unconnected-(A1-Pad15)*%
X93990000Y-115570000D03*
%TO.P,A1,16,SCK*%
%TO.N,unconnected-(A1-Pad16)*%
X109230000Y-115570000D03*
%TO.P,A1,17,3V3*%
%TO.N,+3V3*%
X109230000Y-113030000D03*
%TO.P,A1,18,AREF*%
%TO.N,unconnected-(A1-Pad18)*%
X109230000Y-110490000D03*
%TO.P,A1,19,A0*%
%TO.N,unconnected-(A1-Pad19)*%
X109230000Y-107950000D03*
%TO.P,A1,20,A1*%
%TO.N,unconnected-(A1-Pad20)*%
X109230000Y-105410000D03*
%TO.P,A1,21,A2*%
%TO.N,unconnected-(A1-Pad21)*%
X109230000Y-102870000D03*
%TO.P,A1,22,A3*%
%TO.N,unconnected-(A1-Pad22)*%
X109230000Y-100330000D03*
%TO.P,A1,23,SDA/A4*%
%TO.N,Net-(J3-Pad2)*%
X109230000Y-97790000D03*
%TO.P,A1,24,SCL/A5*%
%TO.N,Net-(J3-Pad3)*%
X109230000Y-95250000D03*
%TO.P,A1,25,A6*%
%TO.N,unconnected-(A1-Pad25)*%
X109230000Y-92710000D03*
%TO.P,A1,26,A7*%
%TO.N,unconnected-(A1-Pad26)*%
X109230000Y-90170000D03*
%TO.P,A1,27,+5V*%
%TO.N,unconnected-(A1-Pad27)*%
X109230000Y-87630000D03*
%TO.P,A1,28,~{RESET}*%
%TO.N,unconnected-(A1-Pad28)*%
X109230000Y-85090000D03*
%TO.P,A1,29,GND*%
%TO.N,GND*%
X109230000Y-82550000D03*
%TO.P,A1,30,VIN*%
%TO.N,+5V*%
X109230000Y-80010000D03*
%TD*%
D13*
%TO.P,Q2,1,S*%
%TO.N,GND*%
X75800000Y-93980000D03*
D14*
%TO.P,Q2,2,G*%
%TO.N,Net-(R2-Pad1)*%
X77870000Y-95250000D03*
%TO.P,Q2,3,D*%
%TO.N,Net-(R3-Pad1)*%
X75800000Y-96520000D03*
%TD*%
D13*
%TO.P,Q1,1,S*%
%TO.N,GND*%
X78340000Y-101600000D03*
D14*
%TO.P,Q1,2,G*%
%TO.N,Net-(R1-Pad1)*%
X80410000Y-102870000D03*
%TO.P,Q1,3,D*%
%TO.N,Net-(R2-Pad1)*%
X78340000Y-104140000D03*
%TD*%
D10*
%TO.P,R5,1*%
%TO.N,+3V3*%
X121920000Y-71120000D03*
D12*
%TO.P,R5,2*%
%TO.N,Net-(J3-Pad3)*%
X121920000Y-81280000D03*
%TD*%
D10*
%TO.P,R4,1*%
%TO.N,+3V3*%
X116840000Y-71120000D03*
D12*
%TO.P,R4,2*%
%TO.N,Net-(J3-Pad2)*%
X116840000Y-81280000D03*
%TD*%
D10*
%TO.P,R3,1*%
%TO.N,Net-(R3-Pad1)*%
X86360000Y-86360000D03*
D12*
%TO.P,R3,2*%
%TO.N,+5V*%
X86360000Y-76200000D03*
%TD*%
D10*
%TO.P,R2,1*%
%TO.N,Net-(R2-Pad1)*%
X81280000Y-86360000D03*
D12*
%TO.P,R2,2*%
%TO.N,+5V*%
X81280000Y-76200000D03*
%TD*%
D10*
%TO.P,R1,1*%
%TO.N,Net-(R1-Pad1)*%
X88900000Y-106680000D03*
D12*
%TO.P,R1,2*%
%TO.N,Buffer*%
X88900000Y-96520000D03*
%TD*%
D15*
%TO.P,J2,1,Pin_1*%
%TO.N,+5V*%
X76280000Y-117145000D03*
D16*
%TO.P,J2,2,Pin_2*%
%TO.N,Net-(R3-Pad1)*%
X81280000Y-117145000D03*
%TO.P,J2,3,Pin_3*%
%TO.N,GND*%
X86280000Y-117145000D03*
%TD*%
D15*
%TO.P,J1,1,Pin_1*%
%TO.N,+5V*%
X119380000Y-116840000D03*
D16*
%TO.P,J1,2,Pin_2*%
%TO.N,GND*%
X124460000Y-116840000D03*
%TD*%
%TO.P,J3,4,Pin_4*%
%TO.N,GND*%
X131580000Y-89140000D03*
%TO.P,J3,3,Pin_3*%
%TO.N,Net-(J3-Pad3)*%
X131580000Y-94140000D03*
%TO.P,J3,2,Pin_2*%
%TO.N,Net-(J3-Pad2)*%
X131580000Y-99140000D03*
D15*
%TO.P,J3,1,Pin_1*%
%TO.N,+3V3*%
X131580000Y-104140000D03*
%TD*%
D17*
%TO.N,+5V*%
X66040000Y-106905000D02*
X66040000Y-86360000D01*
X76280000Y-117145000D02*
X66040000Y-106905000D01*
X81280000Y-76200000D02*
X76200000Y-76200000D01*
X76200000Y-76200000D02*
X66040000Y-86360000D01*
D18*
%TO.N,Net-(R2-Pad1)*%
X91440000Y-104140000D02*
X86360000Y-99060000D01*
X86360000Y-93980000D02*
X91440000Y-88900000D01*
X91440000Y-109220000D02*
X91440000Y-104140000D01*
X86360000Y-99060000D02*
X86360000Y-93980000D01*
X88900000Y-111760000D02*
X91440000Y-109220000D01*
X86360000Y-111760000D02*
X88900000Y-111760000D01*
X78740000Y-104140000D02*
X86360000Y-111760000D01*
%TO.N,Net-(R1-Pad1)*%
X83820000Y-106680000D02*
X88900000Y-106680000D01*
X80010000Y-102870000D02*
X83820000Y-106680000D01*
%TO.N,Buffer*%
X88900000Y-96520000D02*
X92720000Y-96520000D01*
X92720000Y-96520000D02*
X93990000Y-97790000D01*
%TO.N,Net-(R3-Pad1)*%
X81280000Y-96520000D02*
X76200000Y-96520000D01*
X83820000Y-93980000D02*
X81280000Y-96520000D01*
X83820000Y-91083204D02*
X83820000Y-93980000D01*
X86360000Y-88543204D02*
X83820000Y-91083204D01*
X86360000Y-86360000D02*
X86360000Y-88543204D01*
%TO.N,Net-(R2-Pad1)*%
X81280000Y-91440000D02*
X77470000Y-95250000D01*
X81280000Y-86360000D02*
X81280000Y-91440000D01*
%TO.N,Net-(R3-Pad1)*%
X73660000Y-99060000D02*
X73660000Y-109525000D01*
X73660000Y-109525000D02*
X81280000Y-117145000D01*
X76200000Y-96520000D02*
X73660000Y-99060000D01*
%TO.N,Net-(J3-Pad2)*%
X116840000Y-78740000D02*
X116840000Y-81280000D01*
X134620000Y-78740000D02*
X132080000Y-76200000D01*
X119380000Y-76200000D02*
X116840000Y-78740000D01*
X134620000Y-96520000D02*
X134620000Y-78740000D01*
X134200000Y-96520000D02*
X134620000Y-96520000D01*
X132080000Y-76200000D02*
X119380000Y-76200000D01*
X131580000Y-99140000D02*
X134200000Y-96520000D01*
%TO.N,Net-(J3-Pad3)*%
X121920000Y-84480000D02*
X131580000Y-94140000D01*
X121920000Y-81280000D02*
X121920000Y-84480000D01*
X130470000Y-95250000D02*
X131580000Y-94140000D01*
X109230000Y-95250000D02*
X130470000Y-95250000D01*
%TO.N,Net-(J3-Pad2)*%
X130230000Y-97790000D02*
X131580000Y-99140000D01*
X109230000Y-97790000D02*
X130230000Y-97790000D01*
%TO.N,+3V3*%
X118120000Y-104140000D02*
X109230000Y-113030000D01*
X131580000Y-104140000D02*
X118120000Y-104140000D01*
X121920000Y-71120000D02*
X116840000Y-71120000D01*
X129540000Y-71120000D02*
X121920000Y-71120000D01*
X137160000Y-78740000D02*
X129540000Y-71120000D01*
X134620000Y-104140000D02*
X137160000Y-101600000D01*
X137160000Y-101600000D02*
X137160000Y-78740000D01*
X131580000Y-104140000D02*
X134620000Y-104140000D01*
%TO.N,Net-(R2-Pad1)*%
X83820000Y-81280000D02*
X81280000Y-83820000D01*
X88900000Y-81280000D02*
X83820000Y-81280000D01*
X91440000Y-83820000D02*
X88900000Y-81280000D01*
X81280000Y-83820000D02*
X81280000Y-86360000D01*
X91440000Y-88900000D02*
X91440000Y-83820000D01*
D17*
%TO.N,+5V*%
X86360000Y-76200000D02*
X81280000Y-76200000D01*
X105420000Y-76200000D02*
X86360000Y-76200000D01*
X109230000Y-80010000D02*
X105420000Y-76200000D01*
X114300000Y-121920000D02*
X119380000Y-116840000D01*
X78740000Y-121920000D02*
X114300000Y-121920000D01*
X76280000Y-119460000D02*
X78740000Y-121920000D01*
X76280000Y-117145000D02*
X76280000Y-119460000D01*
%TD*%
M02*
