M48
; DRILL file {KiCad (6.0.5)} date Wed Jul 13 22:10:36 2022
; FORMAT={-:-/ absolute / inch / decimal}
; #@! TF.CreationDate,2022-07-13T22:10:36+01:00
; #@! TF.GenerationSoftware,Kicad,Pcbnew,(6.0.5)
; #@! TF.FileFunction,Plated,1,2,PTH
FMAT,2
INCH
; #@! TA.AperFunction,Plated,PTH,ComponentDrill
T1C0.0295
; #@! TA.AperFunction,Plated,PTH,ComponentDrill
T2C0.0315
; #@! TA.AperFunction,Plated,PTH,ComponentDrill
T3C0.0394
; #@! TA.AperFunction,Plated,PTH,ComponentDrill
T4C0.0512
%
G90
G05
T1
X3.0Y-3.7
X3.0Y-3.8
X3.05Y-3.75
X3.1Y-4.0
X3.1Y-4.1
X3.15Y-4.05
T2
X2.6Y-3.4
X2.7969Y-3.4
X3.2Y-3.0
X3.2Y-3.4
X3.4Y-3.0
X3.4Y-3.4
X3.5Y-3.8
X3.5Y-4.2
X4.6Y-2.8
X4.6Y-3.2
X4.8Y-2.8
X4.8Y-3.2
T3
X3.7004Y-3.15
X3.7004Y-3.25
X3.7004Y-3.35
X3.7004Y-3.45
X3.7004Y-3.55
X3.7004Y-3.65
X3.7004Y-3.75
X3.7004Y-3.85
X3.7004Y-3.95
X3.7004Y-4.05
X3.7004Y-4.15
X3.7004Y-4.25
X3.7004Y-4.35
X3.7004Y-4.45
X3.7004Y-4.55
X4.3004Y-3.15
X4.3004Y-3.25
X4.3004Y-3.35
X4.3004Y-3.45
X4.3004Y-3.55
X4.3004Y-3.65
X4.3004Y-3.75
X4.3004Y-3.85
X4.3004Y-3.95
X4.3004Y-4.05
X4.3004Y-4.15
X4.3004Y-4.25
X4.3004Y-4.35
X4.3004Y-4.45
X4.3004Y-4.55
T4
X3.0031Y-4.612
X3.2Y-4.612
X3.3969Y-4.612
X4.7Y-4.6
X4.9Y-4.6
X5.1803Y-3.5094
X5.1803Y-3.7063
X5.1803Y-3.9031
X5.1803Y-4.1
T0
M30
